<svg xmlns="http://www.w3.org/2000/svg" viewBox="0 0 124 104">
    <defs>
        <style>.cls-1{fill:#fa7042;}.cls-2{fill:none;stroke:#fef3c8;stroke-miterlimit:10;stroke-width:4px;}</style>
    </defs>
    <g id="Layer_2" data-name="Layer 2">
        <g id="Layer_1-2" data-name="Layer 1">
            <rect class="cls-1" x="0.13" y="0.01" width="123.7" height="103.91"/>
            <rect class="cls-2" x="102" y="2" width="20" height="20"/>
            <rect class="cls-2" x="82" y="2" width="20" height="20"/>
            <polygon class="cls-2" points="82 22 82 42 82 42 82 62 62 62 42 62 42 62 42 82 42 82 62 82 82 82 102 82 102 62 102 42 102 42 102 22 82 22"/>
            <rect class="cls-2" x="62" y="2" width="20" height="20"/>
            <polyline class="cls-2" points="42 42 42 42 42 22 42 2 22 2"/>
            <polyline class="cls-2" points="22 22 22 42 22 42"/>
            <rect class="cls-2" x="102" y="22" width="20" height="20"/>
            <polyline class="cls-2" points="22 62 22 42 2 42 2 62 2 82 22 82"/>
            <line class="cls-2" x1="22" y1="42" x2="22" y2="62"/>
            <polyline class="cls-2" points="62 42 62 42 62 22 62 2 42 2 42 22 42 42 42 42"/>
            <polyline class="cls-2" points="42 42 42 62 62 62 82 62 82 42 82 42 82 22 62 22 62 42 62 42"/>
            <polygon class="cls-2" points="102 42 102 42 102 42 102 62 102 82 82 82 62 82 42 82 22 82 2 82 2 82 2 102 2 102 22 102 42 102 62 102 82 102 102 102 122 102 122 82 122 62 122 42 122 42 122 42 102 42"/>
            <polyline class="cls-2" points="22 22 22 42 2 42 2 22 2 2 22 2"/>
        </g>
    </g>
</svg>