<svg xmlns="http://www.w3.org/2000/svg" viewBox="0 0 760 430">
    <defs>
        <style>.cls-1{fill:#fa7042;}</style>
    </defs>
    <g id="Layer_2" data-name="Layer 2">
        <g id="Layer_1-2" data-name="Layer 1">
            <rect class="cls-1" x="550" width="100" height="100" rx="5"/>
            <rect class="cls-1" x="550" y="110" width="100" height="100" rx="5"/>
            <rect class="cls-1" x="550" y="220" width="100" height="100" rx="5"/>
            <path class="cls-1" d="M665,0a5,5,0,0,0-5,5V325a5,5,0,0,1-5,5H555a5,5,0,0,0-5,5v90a5,5,0,0,0,5,5H755a5,5,0,0,0,5-5V5a5,5,0,0,0-5-5Z"/>
            <path class="cls-1" d="M445,0a5,5,0,0,0-5,5V330H225a5,5,0,0,0-5,5v90a5,5,0,0,0,5,5H535a5,5,0,0,0,5-5V5a5,5,0,0,0-5-5Z"/>
            <path class="cls-1" d="M425,110H335a5,5,0,0,0-5,5V215a5,5,0,0,1-5,5h0a5,5,0,0,1-5-5V110h0V5a5,5,0,0,0-5-5H225a5,5,0,0,0-5,5V141.62h0V220h0v95a5,5,0,0,0,5,5H425a5,5,0,0,0,5-5V229.45h0V115A5,5,0,0,0,425,110Z"/>
            <rect class="cls-1" x="330" width="100" height="100" rx="5" transform="translate(760 100) rotate(180)"/>
            <path class="cls-1" d="M124.53,0H5A5,5,0,0,0,0,5V205a5,5,0,0,0,5,5H95a5,5,0,0,0,5-5V105a5,5,0,0,1,5-5h0a5,5,0,0,1,5,5V325a5,5,0,0,1-5,5h0a5,5,0,0,1-5-5V225a5,5,0,0,0-5-5H5a5,5,0,0,0-5,5V425a5,5,0,0,0,5,5H205a5,5,0,0,0,5-5V5a5,5,0,0,0-5-5Z"/>
        </g>
    </g>
</svg>