<svg xmlns="http://www.w3.org/2000/svg" xmlns:xlink="http://www.w3.org/1999/xlink" viewBox="0 0 1310 430"><defs><style>.cls-1{fill:url(#linear-gradient);}.cls-2{fill:#f76758;}.cls-3{fill:#fbb72c;}.cls-4{fill:#fff;}</style><linearGradient id="linear-gradient" x1="1.46" y1="1.46" x2="98.54" y2="98.54" gradientUnits="userSpaceOnUse"><stop offset="0" stop-color="#f76758"/><stop offset="1" stop-color="#fbb72c"/></linearGradient></defs><g id="Layer_2" data-name="Layer 2"><g id="Layer_1-2" data-name="Layer 1"><rect class="cls-1" width="100" height="100" rx="5"/><rect class="cls-2" y="110" width="100" height="100" rx="5"/><rect class="cls-3" y="220" width="100" height="100" rx="5"/><path class="cls-4" d="M755,0H665a5,5,0,0,0-5,5V220H650V5a5,5,0,0,0-5-5H555a5,5,0,0,0-5,5V220h-9a5.87,5.87,0,0,0-.94.09V202.54a4.74,4.74,0,0,0-.1-1V115a5,5,0,0,0-.85-2.79,4.92,4.92,0,0,0,.85-2.79V5a5,5,0,0,0-5-5H445a5,5,0,0,0-5,5V109.42a4.92,4.92,0,0,0,.85,2.79A5,5,0,0,0,440,115V215.64a5.67,5.67,0,0,0,.1,1v95.8a5.69,5.69,0,0,0-.1,1V330H430V5a5,5,0,0,0-5-5H316.36a4.89,4.89,0,0,0-.68.07A5.23,5.23,0,0,0,315,0H225a5,5,0,0,0-5,5V113.51a4.53,4.53,0,0,0,.08.74,4.65,4.65,0,0,0-.08.75V223.81a5.61,5.61,0,0,0,.06.59c0,.2-.06.4-.06.6V425a5,5,0,0,0,5,5h90a5,5,0,0,0,5-5V225c0-.2,0-.4-.06-.6a5.61,5.61,0,0,0,.06-.59V115a4.65,4.65,0,0,0-.08-.75,4.53,4.53,0,0,0,.08-.74V100h10V334a2.52,2.52,0,0,1,0,1v90a5,5,0,0,0,5,5H535a5,5,0,0,0,5-5V319.89a5.1,5.1,0,0,0,1,.11H755a5,5,0,0,0,5-5V5A5,5,0,0,0,755,0Z"/><path class="cls-4" d="M870,5a5,5,0,0,0-5-5H775a5,5,0,0,0-5,5V95a5.07,5.07,0,0,0,.15,1.17,4.91,4.91,0,0,0-.15,1.16v126a5.83,5.83,0,0,0,.08.84,5.56,5.56,0,0,0-.08.83v90a2.53,2.53,0,0,1,0,1v14H555a5,5,0,0,0-5,5v90a5,5,0,0,0,5,5H865a5,5,0,0,0,5-5V316a2.53,2.53,0,0,1,0-1V225a5.56,5.56,0,0,0-.08-.83,5.83,5.83,0,0,0,.08-.84v-126a4.91,4.91,0,0,0-.15-1.16A5.07,5.07,0,0,0,870,95Z"/><path class="cls-4" d="M1305,0H1105a5,5,0,0,0-5,5V315a5,5,0,0,0,5,5h105v10H1090V5a5,5,0,0,0-5-5H995a4.87,4.87,0,0,1-5,0H885a5,5,0,0,0-5,5V205a5,5,0,0,0,5,5h90a5,5,0,0,0,5-5V100h10V330H980V225a5,5,0,0,0-5-5H885a5,5,0,0,0-5,5V425a5,5,0,0,0,5,5H990a4.87,4.87,0,0,1,5,0h310a5,5,0,0,0,5-5V5A5,5,0,0,0,1305,0ZM1200,100h10V220h-10Z"/><path class="cls-4" d="M115,0a5,5,0,0,0-5,5V325a5,5,0,0,1-5,5H5a5,5,0,0,0-5,5v90a5,5,0,0,0,5,5H205a5,5,0,0,0,5-5V5a5,5,0,0,0-5-5Z"/></g></g></svg>